<mxfile host="Electron" modified="2023-06-10T08:41:41.574Z" agent="Mozilla/5.0 (Windows NT 10.0; Win64; x64) AppleWebKit/537.36 (KHTML, like Gecko) draw.io/21.3.7 Chrome/112.0.5615.204 Electron/24.5.0 Safari/537.36" etag="-FC7sS7rOeag_g_CPDXO" version="21.3.7" type="device">
  <diagram id="C5RBs43oDa-KdzZeNtuy" name="Page-1">
    <mxGraphModel dx="1834" dy="836" grid="0" gridSize="10" guides="1" tooltips="1" connect="1" arrows="1" fold="1" page="0" pageScale="1" pageWidth="827" pageHeight="1169" math="0" shadow="0">
      <root>
        <mxCell id="WIyWlLk6GJQsqaUBKTNV-0" />
        <mxCell id="WIyWlLk6GJQsqaUBKTNV-1" parent="WIyWlLk6GJQsqaUBKTNV-0" />
        <mxCell id="QPLdZbenW8aIQRC72Vjh-0" value="Repository" style="html=1;whiteSpace=wrap;fontStyle=1;fontFamily=Iosevka;" parent="WIyWlLk6GJQsqaUBKTNV-1" vertex="1">
          <mxGeometry x="567" y="373" width="110" height="50" as="geometry" />
        </mxCell>
        <mxCell id="QPLdZbenW8aIQRC72Vjh-13" style="edgeStyle=orthogonalEdgeStyle;rounded=0;orthogonalLoop=1;jettySize=auto;html=1;endArrow=diamondThin;endFill=0;jumpSize=6;startSize=16;endSize=16;startArrow=diamondThin;startFill=1;fontFamily=Iosevka;" parent="WIyWlLk6GJQsqaUBKTNV-1" source="QPLdZbenW8aIQRC72Vjh-1" target="QPLdZbenW8aIQRC72Vjh-7" edge="1">
          <mxGeometry relative="1" as="geometry">
            <Array as="points">
              <mxPoint x="245" y="636" />
            </Array>
          </mxGeometry>
        </mxCell>
        <mxCell id="QPLdZbenW8aIQRC72Vjh-1" value="MQTTSubscriber" style="html=1;whiteSpace=wrap;fontStyle=1;fontFamily=Iosevka;" parent="WIyWlLk6GJQsqaUBKTNV-1" vertex="1">
          <mxGeometry x="360" y="609" width="110" height="50" as="geometry" />
        </mxCell>
        <mxCell id="QPLdZbenW8aIQRC72Vjh-2" value="CreateFeedHandler" style="rounded=0;whiteSpace=wrap;html=1;fontStyle=1;fontFamily=Iosevka;" parent="WIyWlLk6GJQsqaUBKTNV-1" vertex="1">
          <mxGeometry x="89" y="259" width="182" height="60" as="geometry" />
        </mxCell>
        <mxCell id="QPLdZbenW8aIQRC72Vjh-3" value="DeleteFeedHandler" style="rounded=0;whiteSpace=wrap;html=1;fontStyle=1;fontFamily=Iosevka;" parent="WIyWlLk6GJQsqaUBKTNV-1" vertex="1">
          <mxGeometry x="10.5" y="352" width="183" height="60" as="geometry" />
        </mxCell>
        <mxCell id="QPLdZbenW8aIQRC72Vjh-4" value="StreamSensorValuesHandler" style="rounded=0;whiteSpace=wrap;html=1;fontStyle=1;fontFamily=Iosevka;" parent="WIyWlLk6GJQsqaUBKTNV-1" vertex="1">
          <mxGeometry x="13" y="549" width="183" height="60" as="geometry" />
        </mxCell>
        <mxCell id="QPLdZbenW8aIQRC72Vjh-5" value="..." style="rounded=0;whiteSpace=wrap;html=1;fontStyle=1;fontFamily=Iosevka;" parent="WIyWlLk6GJQsqaUBKTNV-1" vertex="1">
          <mxGeometry x="95" y="653" width="184" height="60" as="geometry" />
        </mxCell>
        <mxCell id="QPLdZbenW8aIQRC72Vjh-8" style="edgeStyle=orthogonalEdgeStyle;rounded=0;orthogonalLoop=1;jettySize=auto;html=1;endArrow=none;endFill=0;startArrow=diamondThin;startFill=1;startSize=16;fontFamily=Iosevka;" parent="WIyWlLk6GJQsqaUBKTNV-1" source="QPLdZbenW8aIQRC72Vjh-7" target="QPLdZbenW8aIQRC72Vjh-2" edge="1">
          <mxGeometry relative="1" as="geometry">
            <Array as="points">
              <mxPoint x="226" y="386" />
              <mxPoint x="226" y="386" />
            </Array>
          </mxGeometry>
        </mxCell>
        <mxCell id="QPLdZbenW8aIQRC72Vjh-10" style="edgeStyle=orthogonalEdgeStyle;rounded=0;orthogonalLoop=1;jettySize=auto;html=1;endArrow=none;endFill=0;startArrow=diamondThin;startFill=1;startSize=16;fontFamily=Iosevka;" parent="WIyWlLk6GJQsqaUBKTNV-1" source="QPLdZbenW8aIQRC72Vjh-7" target="QPLdZbenW8aIQRC72Vjh-4" edge="1">
          <mxGeometry relative="1" as="geometry">
            <Array as="points">
              <mxPoint x="185" y="531" />
              <mxPoint x="105" y="531" />
            </Array>
          </mxGeometry>
        </mxCell>
        <mxCell id="QPLdZbenW8aIQRC72Vjh-11" style="edgeStyle=orthogonalEdgeStyle;rounded=0;orthogonalLoop=1;jettySize=auto;html=1;endArrow=none;endFill=0;startArrow=diamondThin;startFill=1;startSize=16;fontFamily=Iosevka;" parent="WIyWlLk6GJQsqaUBKTNV-1" source="QPLdZbenW8aIQRC72Vjh-7" target="QPLdZbenW8aIQRC72Vjh-5" edge="1">
          <mxGeometry relative="1" as="geometry">
            <Array as="points">
              <mxPoint x="219" y="582" />
              <mxPoint x="219" y="582" />
            </Array>
          </mxGeometry>
        </mxCell>
        <mxCell id="QPLdZbenW8aIQRC72Vjh-7" value="Server" style="rounded=0;whiteSpace=wrap;html=1;fontStyle=1;fontFamily=Iosevka;" parent="WIyWlLk6GJQsqaUBKTNV-1" vertex="1">
          <mxGeometry x="166" y="450" width="120" height="60" as="geometry" />
        </mxCell>
        <mxCell id="QPLdZbenW8aIQRC72Vjh-9" style="edgeStyle=orthogonalEdgeStyle;rounded=0;orthogonalLoop=1;jettySize=auto;html=1;endArrow=none;endFill=0;startArrow=diamondThin;startFill=1;startSize=16;fontFamily=Iosevka;" parent="WIyWlLk6GJQsqaUBKTNV-1" source="QPLdZbenW8aIQRC72Vjh-7" target="QPLdZbenW8aIQRC72Vjh-3" edge="1">
          <mxGeometry relative="1" as="geometry">
            <Array as="points">
              <mxPoint x="192" y="431" />
            </Array>
          </mxGeometry>
        </mxCell>
        <mxCell id="QPLdZbenW8aIQRC72Vjh-14" style="edgeStyle=orthogonalEdgeStyle;rounded=0;orthogonalLoop=1;jettySize=auto;html=1;endArrow=diamondThin;endFill=0;jumpSize=6;startSize=16;endSize=16;startArrow=diamondThin;startFill=1;fontFamily=Iosevka;jumpStyle=arc;" parent="WIyWlLk6GJQsqaUBKTNV-1" source="QPLdZbenW8aIQRC72Vjh-0" target="QPLdZbenW8aIQRC72Vjh-7" edge="1">
          <mxGeometry relative="1" as="geometry">
            <mxPoint x="445" y="623" as="sourcePoint" />
            <mxPoint x="280" y="520" as="targetPoint" />
            <Array as="points">
              <mxPoint x="597" y="497" />
            </Array>
          </mxGeometry>
        </mxCell>
        <mxCell id="QPLdZbenW8aIQRC72Vjh-16" style="edgeStyle=orthogonalEdgeStyle;rounded=0;orthogonalLoop=1;jettySize=auto;html=1;endArrow=none;endFill=0;startArrow=diamondThin;startFill=1;startSize=16;fontFamily=Iosevka;" parent="WIyWlLk6GJQsqaUBKTNV-1" source="QPLdZbenW8aIQRC72Vjh-1" target="QPLdZbenW8aIQRC72Vjh-17" edge="1">
          <mxGeometry relative="1" as="geometry">
            <mxPoint x="216" y="503" as="sourcePoint" />
            <mxPoint x="69" y="622" as="targetPoint" />
            <Array as="points" />
          </mxGeometry>
        </mxCell>
        <mxCell id="QPLdZbenW8aIQRC72Vjh-17" value="«connection»&lt;br&gt;&lt;b&gt;mqtt.Client&lt;/b&gt;" style="html=1;whiteSpace=wrap;fontFamily=Iosevka;" parent="WIyWlLk6GJQsqaUBKTNV-1" vertex="1">
          <mxGeometry x="360" y="687" width="110" height="50" as="geometry" />
        </mxCell>
        <mxCell id="QPLdZbenW8aIQRC72Vjh-18" value="«connection»&lt;br&gt;&lt;b&gt;sql.Database&lt;/b&gt;" style="html=1;whiteSpace=wrap;fontFamily=Iosevka;" parent="WIyWlLk6GJQsqaUBKTNV-1" vertex="1">
          <mxGeometry x="567" y="286" width="110" height="50" as="geometry" />
        </mxCell>
        <mxCell id="QPLdZbenW8aIQRC72Vjh-19" style="edgeStyle=orthogonalEdgeStyle;rounded=0;orthogonalLoop=1;jettySize=auto;html=1;endArrow=none;endFill=0;startArrow=diamondThin;startFill=1;startSize=16;fontFamily=Iosevka;" parent="WIyWlLk6GJQsqaUBKTNV-1" source="QPLdZbenW8aIQRC72Vjh-0" target="QPLdZbenW8aIQRC72Vjh-18" edge="1">
          <mxGeometry relative="1" as="geometry">
            <mxPoint x="425" y="623" as="sourcePoint" />
            <mxPoint x="425" y="677" as="targetPoint" />
            <Array as="points" />
          </mxGeometry>
        </mxCell>
        <mxCell id="QPLdZbenW8aIQRC72Vjh-20" value="view" style="shape=umlFrame;whiteSpace=wrap;html=1;pointerEvents=0;opacity=50;fontFamily=Iosevka;" parent="WIyWlLk6GJQsqaUBKTNV-1" vertex="1">
          <mxGeometry x="-17" y="229" width="313" height="529" as="geometry" />
        </mxCell>
        <mxCell id="QPLdZbenW8aIQRC72Vjh-21" value="controller" style="shape=umlFrame;whiteSpace=wrap;html=1;pointerEvents=0;width=81;height=30;opacity=50;fontFamily=Iosevka;" parent="WIyWlLk6GJQsqaUBKTNV-1" vertex="1">
          <mxGeometry x="315" y="228" width="209" height="530" as="geometry" />
        </mxCell>
        <mxCell id="QPLdZbenW8aIQRC72Vjh-22" value="DatabaseHooker" style="html=1;whiteSpace=wrap;fontStyle=1;fontFamily=Iosevka;" parent="WIyWlLk6GJQsqaUBKTNV-1" vertex="1">
          <mxGeometry x="357" y="319" width="110" height="50" as="geometry" />
        </mxCell>
        <mxCell id="QPLdZbenW8aIQRC72Vjh-23" style="edgeStyle=orthogonalEdgeStyle;rounded=0;orthogonalLoop=1;jettySize=auto;html=1;endArrow=none;endFill=0;startArrow=diamondThin;startFill=1;startSize=16;fontFamily=Iosevka;" parent="WIyWlLk6GJQsqaUBKTNV-1" source="QPLdZbenW8aIQRC72Vjh-22" target="QPLdZbenW8aIQRC72Vjh-18" edge="1">
          <mxGeometry relative="1" as="geometry">
            <mxPoint x="417" y="328" as="sourcePoint" />
            <mxPoint x="417" y="284" as="targetPoint" />
            <Array as="points">
              <mxPoint x="533" y="344" />
              <mxPoint x="533" y="311" />
            </Array>
          </mxGeometry>
        </mxCell>
        <mxCell id="QPLdZbenW8aIQRC72Vjh-24" value="FeedValueLogger" style="html=1;whiteSpace=wrap;fontStyle=1;fontFamily=Iosevka;" parent="WIyWlLk6GJQsqaUBKTNV-1" vertex="1">
          <mxGeometry x="360" y="531" width="110" height="50" as="geometry" />
        </mxCell>
        <mxCell id="QPLdZbenW8aIQRC72Vjh-27" style="edgeStyle=orthogonalEdgeStyle;rounded=0;orthogonalLoop=1;jettySize=auto;html=1;endArrow=diamondThin;endFill=0;jumpSize=6;startSize=16;endSize=16;startArrow=diamondThin;startFill=1;fontFamily=Iosevka;" parent="WIyWlLk6GJQsqaUBKTNV-1" source="QPLdZbenW8aIQRC72Vjh-24" target="QPLdZbenW8aIQRC72Vjh-7" edge="1">
          <mxGeometry relative="1" as="geometry">
            <mxPoint x="417" y="378" as="sourcePoint" />
            <mxPoint x="273" y="460" as="targetPoint" />
            <Array as="points">
              <mxPoint x="273" y="556" />
            </Array>
          </mxGeometry>
        </mxCell>
        <mxCell id="QPLdZbenW8aIQRC72Vjh-28" value="AutomaticScheduler" style="html=1;whiteSpace=wrap;fontStyle=1;fontFamily=Iosevka;" parent="WIyWlLk6GJQsqaUBKTNV-1" vertex="1">
          <mxGeometry x="357" y="406" width="138" height="50" as="geometry" />
        </mxCell>
        <mxCell id="QPLdZbenW8aIQRC72Vjh-29" style="edgeStyle=orthogonalEdgeStyle;rounded=0;orthogonalLoop=1;jettySize=auto;html=1;endArrow=diamondThin;endFill=0;jumpSize=6;startSize=16;endSize=16;startArrow=diamondThin;startFill=1;fontFamily=Iosevka;jumpStyle=arc;" parent="WIyWlLk6GJQsqaUBKTNV-1" source="QPLdZbenW8aIQRC72Vjh-28" target="QPLdZbenW8aIQRC72Vjh-7" edge="1">
          <mxGeometry relative="1" as="geometry">
            <mxPoint x="539" y="735" as="sourcePoint" />
            <mxPoint x="296" y="508" as="targetPoint" />
            <Array as="points">
              <mxPoint x="419" y="480" />
            </Array>
          </mxGeometry>
        </mxCell>
        <mxCell id="QPLdZbenW8aIQRC72Vjh-30" style="edgeStyle=orthogonalEdgeStyle;rounded=0;orthogonalLoop=1;jettySize=auto;html=1;endArrow=diamondThin;endFill=0;jumpSize=6;startSize=16;endSize=16;startArrow=diamondThin;startFill=1;fontFamily=Iosevka;jumpStyle=arc;" parent="WIyWlLk6GJQsqaUBKTNV-1" source="QPLdZbenW8aIQRC72Vjh-22" target="QPLdZbenW8aIQRC72Vjh-7" edge="1">
          <mxGeometry relative="1" as="geometry">
            <mxPoint x="605" y="561" as="sourcePoint" />
            <mxPoint x="296" y="495" as="targetPoint" />
            <Array as="points">
              <mxPoint x="336" y="344" />
              <mxPoint x="336" y="464" />
            </Array>
          </mxGeometry>
        </mxCell>
        <mxCell id="QPLdZbenW8aIQRC72Vjh-31" value="model" style="shape=umlFrame;whiteSpace=wrap;html=1;pointerEvents=0;width=69;height=32;opacity=50;fontFamily=Iosevka;" parent="WIyWlLk6GJQsqaUBKTNV-1" vertex="1">
          <mxGeometry x="545" y="227" width="219" height="531" as="geometry" />
        </mxCell>
        <mxCell id="QPLdZbenW8aIQRC72Vjh-32" value="Feed" style="html=1;whiteSpace=wrap;fontStyle=1;fontFamily=Iosevka;" parent="WIyWlLk6GJQsqaUBKTNV-1" vertex="1">
          <mxGeometry x="644" y="466" width="82" height="50" as="geometry" />
        </mxCell>
        <mxCell id="QPLdZbenW8aIQRC72Vjh-33" value="Config" style="html=1;whiteSpace=wrap;fontStyle=1;fontFamily=Iosevka;" parent="WIyWlLk6GJQsqaUBKTNV-1" vertex="1">
          <mxGeometry x="644" y="539" width="83" height="50" as="geometry" />
        </mxCell>
        <mxCell id="QPLdZbenW8aIQRC72Vjh-34" value="Activity" style="html=1;whiteSpace=wrap;fontStyle=1;fontFamily=Iosevka;" parent="WIyWlLk6GJQsqaUBKTNV-1" vertex="1">
          <mxGeometry x="644" y="614" width="83" height="50" as="geometry" />
        </mxCell>
        <mxCell id="2PQMctNrTV5LwdpQHxMM-1" style="edgeStyle=orthogonalEdgeStyle;rounded=0;orthogonalLoop=1;jettySize=auto;html=1;endArrow=diamondThin;endFill=0;jumpSize=6;startSize=16;endSize=16;startArrow=none;startFill=0;fontFamily=Iosevka;jumpStyle=none;" edge="1" parent="WIyWlLk6GJQsqaUBKTNV-1" source="QPLdZbenW8aIQRC72Vjh-32" target="QPLdZbenW8aIQRC72Vjh-0">
          <mxGeometry relative="1" as="geometry">
            <mxPoint x="596" y="433" as="sourcePoint" />
            <mxPoint x="296" y="474" as="targetPoint" />
            <Array as="points">
              <mxPoint x="622" y="491" />
            </Array>
          </mxGeometry>
        </mxCell>
        <mxCell id="2PQMctNrTV5LwdpQHxMM-2" style="edgeStyle=orthogonalEdgeStyle;rounded=0;orthogonalLoop=1;jettySize=auto;html=1;endArrow=diamondThin;endFill=0;jumpSize=6;startSize=16;endSize=16;startArrow=none;startFill=0;fontFamily=Iosevka;jumpStyle=none;" edge="1" parent="WIyWlLk6GJQsqaUBKTNV-1" source="QPLdZbenW8aIQRC72Vjh-33" target="QPLdZbenW8aIQRC72Vjh-0">
          <mxGeometry relative="1" as="geometry">
            <mxPoint x="654" y="484" as="sourcePoint" />
            <mxPoint x="632" y="433" as="targetPoint" />
            <Array as="points">
              <mxPoint x="622" y="564" />
            </Array>
          </mxGeometry>
        </mxCell>
        <mxCell id="2PQMctNrTV5LwdpQHxMM-3" style="edgeStyle=orthogonalEdgeStyle;rounded=0;orthogonalLoop=1;jettySize=auto;html=1;endArrow=diamondThin;endFill=0;jumpSize=6;startSize=16;endSize=16;startArrow=none;startFill=0;fontFamily=Iosevka;jumpStyle=none;" edge="1" parent="WIyWlLk6GJQsqaUBKTNV-1" source="QPLdZbenW8aIQRC72Vjh-34" target="QPLdZbenW8aIQRC72Vjh-0">
          <mxGeometry relative="1" as="geometry">
            <mxPoint x="654" y="586" as="sourcePoint" />
            <mxPoint x="632" y="433" as="targetPoint" />
            <Array as="points">
              <mxPoint x="622" y="639" />
            </Array>
          </mxGeometry>
        </mxCell>
        <mxCell id="2PQMctNrTV5LwdpQHxMM-4" value="Notification" style="html=1;whiteSpace=wrap;fontStyle=1;fontFamily=Iosevka;" vertex="1" parent="WIyWlLk6GJQsqaUBKTNV-1">
          <mxGeometry x="644" y="689" width="83" height="50" as="geometry" />
        </mxCell>
        <mxCell id="2PQMctNrTV5LwdpQHxMM-5" style="edgeStyle=orthogonalEdgeStyle;rounded=0;orthogonalLoop=1;jettySize=auto;html=1;endArrow=diamondThin;endFill=0;jumpSize=6;startSize=16;endSize=16;startArrow=none;startFill=0;fontFamily=Iosevka;jumpStyle=none;" edge="1" parent="WIyWlLk6GJQsqaUBKTNV-1" source="2PQMctNrTV5LwdpQHxMM-4" target="QPLdZbenW8aIQRC72Vjh-0">
          <mxGeometry relative="1" as="geometry">
            <mxPoint x="654" y="665" as="sourcePoint" />
            <mxPoint x="632" y="433" as="targetPoint" />
            <Array as="points">
              <mxPoint x="622" y="714" />
            </Array>
          </mxGeometry>
        </mxCell>
      </root>
    </mxGraphModel>
  </diagram>
</mxfile>
